<?xml version="1.0" encoding="UTF-8" standalone="no"?><!DOCTYPE svg PUBLIC "-//W3C//DTD SVG 1.1//EN" "http://www.w3.org/Graphics/SVG/1.1/DTD/svg11.dtd"><svg width="100%" height="100%" viewBox="0 0 632 119" version="1.1" xmlns="http://www.w3.org/2000/svg" xmlns:xlink="http://www.w3.org/1999/xlink" xml:space="preserve" xmlns:serif="http://www.serif.com/" style="fill-rule:evenodd;clip-rule:evenodd;stroke-linejoin:round;stroke-miterlimit:2;"><g><path d="M131.005,80.555l0,-39.096l9.079,0l0,15.168l28.413,0l-0,-15.168l9.166,0l0,39.096l-9.166,0l-0,-16.783l-28.413,-0l0,16.827l-9.079,-0.044Z" style="fill:#fff6e4;fill-rule:nonzero;"/><path d="M188.666,80.555l22.114,-39.096l8.793,0l22.411,39.096l-10.232,0l-4.705,-8.54l-24.774,-0l-4.551,8.54l-9.056,0Zm17.487,-15.607l17.124,-0l-8.452,-15.905l-8.672,15.905Z" style="fill:#fff6e4;fill-rule:nonzero;"/><path d="M253.02,80.555l-0,-39.096l9.068,0l-0,31.732l29.335,0l0,7.364l-38.403,0Z" style="fill:#fff6e4;fill-rule:nonzero;"/><path d="M303.239,80.555l-0,-39.096l39.569,0l-0,6.848l-30.468,-0l-0,10.277l16.487,-0l-0,7.144l-16.487,-0l-0,14.827l-9.101,0Z" style="fill:#fff6e4;fill-rule:nonzero;"/><path d="M352.546,80.555l-0,-39.096l25.148,0c7.174,0 12.691,1.678 16.553,5.034c3.862,3.356 5.789,8.119 5.781,14.289c0.064,3.431 -0.71,6.827 -2.253,9.892c-1.438,2.848 -3.642,5.239 -6.364,6.903c-1.952,1.155 -4.103,1.938 -6.342,2.308c-3.206,0.538 -6.455,0.78 -9.705,0.725l-22.818,-0.055Zm9.101,-7.364l11.76,0c6.258,0 10.695,-0.974 13.311,-2.924c2.616,-1.949 3.924,-5.166 3.924,-9.65c-0,-3.99 -1.099,-7.023 -3.298,-9.079c-2.198,-2.055 -5.374,-3.088 -9.617,-3.088l-16.08,-0l-0,24.741Z" style="fill:#cb8c2a;fill-rule:nonzero;"/><path d="M414.383,50.703c-0,-3.554 0.667,-5.983 2,-7.287c1.33,-1.297 3.891,-1.957 7.694,-1.957l28.776,0c3.792,0 6.353,0.66 7.693,1.957c1.341,1.297 2.001,3.737 2.001,7.287l-0,20.609c-0,3.572 -0.66,6.001 -2.001,7.298c-1.34,1.297 -3.89,1.945 -7.693,1.945l-28.776,0c-3.803,0 -6.367,-0.648 -7.694,-1.945c-1.326,-1.297 -1.993,-3.73 -2,-7.298l-0,-20.609Zm9.101,22.488l29.995,0l0,-24.741l-29.995,-0l-0,24.741Z" style="fill:#cb8c2a;fill-rule:nonzero;"/><path d="M474.813,80.555l0,-4.253l27.336,-27.852l-24.632,-0l0,-6.991l39.25,0l-0,3.88l-27.709,27.852l27.742,0l-0,7.364l-41.987,0Z" style="fill:#cb8c2a;fill-rule:nonzero;"/><path d="M530.33,80.555l0,-39.096l40.02,0l-0,6.661l-30.919,-0l-0,8.727l18.048,0l-0,6.661l-18.048,-0l-0,9.683l31.292,0l0,7.364l-40.393,0Z" style="fill:#cb8c2a;fill-rule:nonzero;"/><path d="M585.924,80.555l0,-39.096l6.21,0l27.479,23.082c0.934,0.769 1.758,1.495 2.473,2.198c0.695,0.658 1.352,1.355 1.967,2.089c-0.154,-2.199 -0.253,-3.738 -0.297,-4.661c-0.044,-0.923 -0.077,-1.605 -0.077,-2.099l0,-20.609l8.178,0l-0,39.096l-6.177,0l-28.699,-24.181c-0.692,-0.615 -1.297,-1.176 -1.813,-1.67c-0.505,-0.481 -0.986,-0.987 -1.44,-1.517c0.121,1.209 0.22,2.352 0.275,3.418c0.055,1.066 0.099,2.012 0.099,2.792l-0,21.125l-8.178,0.033Z" style="fill:#cb8c2a;fill-rule:nonzero;"/><path d="M38.272,67.706l13.277,7.661l0,-15.333l-13.277,-7.66l-0,15.332Z" style="fill:#bfab7d;fill-rule:nonzero;"/><path d="M64.827,67.706l-0,-15.332l-13.278,7.66l0,15.333l13.278,-7.661Z" style="fill:#f2e1bb;fill-rule:nonzero;"/><path d="M38.272,52.374l13.277,7.66l13.278,-7.66l-13.278,-7.661l-13.277,7.661Z" style="fill:#fff6e4;fill-rule:nonzero;"/><path d="M103.098,89.282l0,-58.924l-6.078,3.506l0,51.912l-44.954,25.962l-0,7.012l51.032,-29.468Z" style="fill:#cb8c2a;fill-rule:nonzero;"/><path d="M6.067,33.864l-6.067,-3.506l0,58.924l51.033,29.468l-0,-7.012l-44.966,-25.962l0,-51.912Z" style="fill:#a4621f;fill-rule:nonzero;"/><path d="M90.348,81.918l0,-44.196l-6.078,3.506l0,37.184l-32.204,18.597l-0,7.013l38.282,-22.104Z" style="fill:#cb8c2a;fill-rule:nonzero;"/><path d="M18.817,41.228l-6.067,-3.506l-0,44.196l38.283,22.104l-0,-7.013l-32.216,-18.597l0,-37.184Z" style="fill:#a4621f;fill-rule:nonzero;"/><path d="M77.588,74.554l-0,-29.468l-6.068,3.507l0,22.466l-19.454,11.222l-0,7.023l25.522,-14.75Z" style="fill:#cb8c2a;fill-rule:nonzero;"/><path d="M31.578,71.059l0,-22.466l-6.078,-3.507l-0,29.468l25.533,14.75l-0,-7.023l-19.455,-11.222Z" style="fill:#a4621f;fill-rule:nonzero;"/><path d="M96.504,32.974l0.219,-0.121l5.859,-3.385l-51.033,-29.468l-51.043,29.468l0.637,0.362l5.441,3.144l44.965,-25.962l44.955,25.962Z" style="fill:#e2bb1e;fill-rule:nonzero;"/><path d="M51.549,21.741l32.205,18.597l6.078,-3.506l-38.283,-22.104l-38.283,22.104l6.068,3.506l32.215,-18.597Z" style="fill:#e2bb1e;fill-rule:nonzero;"/><path d="M71.004,47.702l0.209,-0.132l5.858,-3.374l-25.522,-14.75l-25.533,14.75l1.462,0.835l4.617,2.671l19.454,-11.233l19.455,11.233Z" style="fill:#e2bb1e;fill-rule:nonzero;"/></g></svg>