<svg id="Layer_1" data-name="Layer 1" xmlns="http://www.w3.org/2000/svg" viewBox="0 0 720 720"><defs><style>.cls-1{fill:#fff;}.cls-2{fill:#bfab7d;}.cls-3{fill:#f2e1bb;}.cls-4{fill:#fff6e4;}.cls-5{fill:#cb8c2a;}.cls-6{fill:#a4621f;}.cls-7{fill:#e2bb1e;}</style></defs><rect class="cls-1" width="720" height="720"/><polygon class="cls-2" points="307.6 392.86 360 423.11 360 362.6 360 362.6 307.61 332.35 307.6 332.35 307.6 392.86"/><polygon class="cls-3" points="412.4 392.86 412.4 332.35 412.4 332.35 360 362.6 360 423.11 412.4 392.86"/><polygon class="cls-4" points="307.62 332.38 360 362.62 412.38 332.38 360 302.13 307.62 332.38"/><polygon class="cls-5" points="563.41 478.02 563.41 245.49 539.45 259.33 539.45 464.19 362.03 566.62 362.03 594.29 563.41 478.02"/><polygon class="cls-6" points="180.56 259.33 156.59 245.49 156.59 478.02 357.97 594.29 357.97 566.62 180.56 464.19 180.56 259.33"/><polygon class="cls-5" points="513.09 448.97 513.09 274.55 489.12 288.38 489.12 435.13 362.03 508.51 362.03 536.18 513.09 448.97"/><polygon class="cls-6" points="230.88 288.38 206.91 274.55 206.91 448.97 357.97 536.18 357.97 508.51 230.88 435.13 230.88 288.38"/><polygon class="cls-5" points="462.76 419.91 462.76 303.6 438.79 317.44 438.8 406.08 362.03 450.4 362.03 478.07 462.76 419.91"/><polygon class="cls-6" points="281.21 406.08 281.21 317.44 257.24 303.6 257.24 419.91 357.97 478.07 357.97 450.4 281.21 406.08"/><polygon class="cls-7" points="537.41 255.81 538.24 255.33 561.38 241.97 360 125.71 158.62 241.97 161.14 243.43 182.59 255.81 360 153.38 537.41 255.81"/><polygon class="cls-7" points="360 211.49 487.09 284.87 511.06 271.03 360 183.82 208.95 271.03 232.91 284.87 360 211.49"/><polygon class="cls-7" points="436.76 313.92 437.59 313.44 460.73 300.08 360 241.93 259.27 300.09 265.03 303.41 283.24 313.92 360 269.6 436.76 313.92"/></svg>