<?xml version="1.0" encoding="UTF-8" standalone="no"?><!DOCTYPE svg PUBLIC "-//W3C//DTD SVG 1.1//EN" "http://www.w3.org/Graphics/SVG/1.1/DTD/svg11.dtd"><svg width="100%" height="100%" viewBox="0 0 3000 3000" version="1.1" xmlns="http://www.w3.org/2000/svg" xmlns:xlink="http://www.w3.org/1999/xlink" xml:space="preserve" xmlns:serif="http://www.serif.com/" style="fill-rule:evenodd;clip-rule:evenodd;stroke-linejoin:round;stroke-miterlimit:2;"><path d="M1281.67,1636.92l218.333,126.041l0,-252.125l-218.292,-126.041l-0.041,-0l-0,252.125Z" style="fill:#bfab7d;fill-rule:nonzero;"/><path d="M1718.33,1636.92l0,-252.125l-218.333,126.041l0,252.125l218.333,-126.041Z" style="fill:#f2e1bb;fill-rule:nonzero;"/><path d="M1281.75,1384.92l218.25,126l218.25,-126l-218.25,-126.042l-218.25,126.042Z" style="fill:#fff6e4;fill-rule:nonzero;"/><path d="M2347.54,1991.75l-0,-968.875l-99.834,57.667l0,853.583l-739.25,426.792l0,115.291l839.084,-484.458Z" style="fill:#cb8c2a;fill-rule:nonzero;"/><path d="M752.333,1080.54l-99.875,-57.667l0,968.875l839.084,484.458l-0,-115.291l-739.209,-426.792l0,-853.583Z" style="fill:#a4621f;fill-rule:nonzero;"/><path d="M2137.88,1870.71l0,-726.75l-99.875,57.625l0,611.459l-529.542,305.75l0,115.291l629.417,-363.375Z" style="fill:#cb8c2a;fill-rule:nonzero;"/><path d="M962,1201.58l-99.875,-57.625l0,726.75l629.417,363.375l-0,-115.291l-529.542,-305.75l0,-611.459Z" style="fill:#a4621f;fill-rule:nonzero;"/><path d="M1928.17,1749.62l-0,-484.625l-99.875,57.667l0.041,369.333l-319.875,184.667l0,115.291l419.709,-242.333Z" style="fill:#cb8c2a;fill-rule:nonzero;"/><path d="M1171.71,1692l0,-369.333l-99.875,-57.667l0,484.625l419.709,242.333l-0,-115.291l-319.834,-184.667Z" style="fill:#a4621f;fill-rule:nonzero;"/><path d="M2239.21,1065.88l3.459,-2l96.416,-55.667l-839.083,-484.416l-839.083,484.416l10.5,6.084l89.375,51.583l739.208,-426.792l739.208,426.792Z" style="fill:#e2bb1e;fill-rule:nonzero;"/><path d="M1500,881.208l529.542,305.75l99.875,-57.666l-629.417,-363.375l-629.375,363.375l99.833,57.666l529.542,-305.75Z" style="fill:#e2bb1e;fill-rule:nonzero;"/><path d="M1819.83,1308l3.459,-2l96.416,-55.667l-419.708,-242.291l-419.708,242.333l24,13.833l75.875,43.792l319.833,-184.667l319.833,184.667Z" style="fill:#e2bb1e;fill-rule:nonzero;"/></svg>